<?xml version="1.0" encoding="utf-8"?>
<!-- Generator: Adobe Illustrator 25.2.1, SVG Export Plug-In . SVG Version: 6.00 Build 0)  -->
<svg version="1.1" id="Layer_1" xmlns="http://www.w3.org/2000/svg" xmlns:xlink="http://www.w3.org/1999/xlink" x="0px" y="0px"
	 viewBox="0 0 538.59 595.28" style="enable-background:new 0 0 538.59 595.28;" xml:space="preserve">
<style type="text/css">
	.st0{fill:#F9AB78;}
	.st1{fill:#FFFFFF;}
	.st2{fill:#FEFFFF;}
	.st3{fill:#AFAEAE;}
	.st4{fill:none;stroke:#FFFFFF;stroke-width:9.309;}
	.st5{enable-background:new    ;}
</style>
<g id="Group_1084_1_" transform="translate(-640 -2416)">
	<g id="Group_1039_1_" transform="translate(653.701 2467.585) rotate(-9)">
		<path id="Path_834_1_" class="st0" d="M11.11,232.51c2.48-7.42,6.83-13.05,14.89-14.82c1.84-0.37,3.71-0.54,5.59-0.52
			c124.28-0.01,248.56-0.02,372.83-0.02c12.5,0,20.38,7.92,20.4,20.44c0.03,18.99-0.07,37.97,0.04,56.95
			c0.23,6.83-2.91,13.34-8.42,17.4c-14.74,11.66-14.86,30.77-0.24,42.51c5.71,4.24,8.96,11.02,8.69,18.12
			c-0.18,18.71-0.04,37.43-0.07,56.15c0,12.87-7.7,20.77-20.48,20.79c-124.28,0.03-248.55,0.04-372.83,0.04
			c-10.6,0-16.86-5.59-20.4-15.02l0-68.7c1.11-5.01,4.08-9.42,8.31-12.34c11.11-8.29,13.41-24.02,5.12-35.13
			c-1.47-1.97-3.23-3.72-5.21-5.18c-4.28-3.05-7.23-7.63-8.23-12.79L11.11,232.51z"/>
		<path id="Path_835_1_" class="st1" d="M11.11,300.38c2.4,5.34,6.08,10.01,10.7,13.61c10.68,9.29,11.8,25.47,2.51,36.15
			c-0.62,0.71-1.27,1.38-1.96,2.02c-4.66,3.73-8.49,8.39-11.25,13.68L11.11,300.38z"/>
		<path id="Path_836_1_" class="st1" d="M217.95,229.27l184.99,0c7.76,0,9.77,2,9.77,9.78c0,18.17-0.08,36.35,0.06,54.53
			c0.22,3.65-1.44,7.15-4.38,9.31c-16.8,12.65-20.17,36.54-7.51,53.34c2.17,2.88,4.74,5.44,7.63,7.6c2.85,2.07,4.46,5.45,4.26,8.96
			c-0.13,18.04-0.06,36.08-0.06,54.12c0,8.66-1.78,10.46-10.33,10.46l-279.5,0c-29.89,0-59.78,0-89.68,0
			c-8.03,0-9.97-1.95-9.97-10.01c0.01-18.16,0.08-36.34-0.06-54.51c-0.21-3.52,1.38-6.91,4.22-9c16.87-12.58,20.35-36.45,7.77-53.32
			c-2.15-2.89-4.71-5.46-7.58-7.63c-2.96-2.15-4.63-5.66-4.42-9.31c0.15-18.31,0.06-36.62,0.07-54.92c0.01-7.24,2.14-9.41,9.32-9.41
			L217.95,229.27z"/>
		<path id="Path_837_1_" class="st0" d="M142.44,301.28c7.36,0,14.71-0.02,22.07,0c9.02,0.04,14.09,4.96,14.11,13.9
			c0.05,25.03,0.05,50.06,0,75.09c0,8.85-4.84,13.81-13.69,13.83c-29.34,0.08-58.68,0.08-88.03,0c-9.18,0.01-14.02-5.08-14.02-14.39
			c0-24.63,0-49.26,0-73.89c0-9.42,5.03-14.49,14.39-14.52c7.34-0.02,14.69,0,23.2,0c-6.05-3.29-11.84-7.06-17.29-11.27
			c-5.5-4.18-8.21-11.09-7.01-17.89c0.92-7.46,6.35-13.57,13.65-15.35c7.17-2.24,14.98,0.16,19.65,6.04
			c4.3,5.28,8.05,10.99,11.17,17.04c3.2-4.94,6.13-9.86,9.44-14.5c4.79-6.73,11.22-10.52,19.73-9.05
			c7.32,0.93,13.31,6.26,15.07,13.42c2.26,7.01,0.07,14.68-5.54,19.45C153.95,293.56,148.31,297.59,142.44,301.28z"/>
		<path id="Path_838_1_" class="st0" d="M366.57,274.76c-0.15,1.84-0.88,3.58-2.11,4.96c-29.72,38.23-59.45,76.45-89.17,114.67
			c-1.74,3.04-5.62,4.09-8.65,2.34c-0.16-0.09-0.31-0.18-0.45-0.29c-2.99-2.2-3.21-5.91-0.36-9.58
			c29.71-38.23,59.42-76.45,89.15-114.67c1.43-2.57,4.46-3.79,7.27-2.92C364.69,270.04,366.41,272.22,366.57,274.76z"/>
		<path id="Path_839_1_" class="st0" d="M322.11,372.04c0.06-14.02,11.43-25.36,25.44-25.39c14.01,0.14,25.33,11.46,25.49,25.47
			c-0.02,14.06-11.44,25.45-25.51,25.43C333.47,397.53,322.09,386.11,322.11,372.04L322.11,372.04z"/>
		<path id="Path_840_1_" class="st0" d="M257.34,294.12c0.18-14.02,11.64-25.27,25.66-25.18c14.01,0.25,25.24,11.66,25.29,25.67
			c-0.13,14.07-11.65,25.36-25.72,25.23C268.5,319.7,257.2,308.19,257.34,294.12L257.34,294.12z"/>
		<path id="Path_841_1_" class="st0" d="M223.93,333.45c0,2.29,0.18,4.59-0.04,6.85c-0.01,3.01-2.46,5.45-5.48,5.44
			c-0.12,0-0.24,0-0.36-0.01c-2.92,0.34-5.56-1.75-5.91-4.66c-0.02-0.2-0.04-0.41-0.04-0.61c-0.26-4.7-0.27-9.4-0.03-14.1
			c0.03-3.09,2.56-5.58,5.65-5.56c0.06,0,0.12,0,0.18,0c3.26-0.08,5.96,2.5,6.03,5.76c0,0.01,0,0.03,0,0.04
			c0.19,2.27,0.04,4.57,0.04,6.85L223.93,333.45z"/>
		<path id="Path_842_1_" class="st0" d="M212.02,372.38c0-2.42-0.18-4.85,0.04-7.25c0.05-3.04,2.55-5.46,5.58-5.41
			c0.11,0,0.22,0.01,0.33,0.01c2.98-0.27,5.61,1.93,5.87,4.91c0.01,0.17,0.02,0.33,0.02,0.5c0.25,4.69,0.25,9.4,0,14.09
			c0.03,2.94-2.34,5.35-5.28,5.37c-0.21,0-0.41-0.01-0.61-0.03c-2.99,0.25-5.62-1.97-5.88-4.96c-0.01-0.13-0.02-0.27-0.02-0.4
			C211.94,376.95,211.92,374.66,212.02,372.38z"/>
		<path id="Path_843_1_" class="st0" d="M223.9,410.92c0.11,2.41,0.09,4.83-0.05,7.25c-0.06,3-2.54,5.38-5.53,5.32
			c-0.14,0-0.29-0.01-0.43-0.03c-2.95,0.26-5.56-1.93-5.81-4.89c-0.02-0.18-0.02-0.37-0.02-0.55c-0.24-4.69-0.23-9.4,0.03-14.09
			c0.01-2.95,2.41-5.34,5.37-5.33c0.19,0,0.39,0.01,0.58,0.03c3.03-0.2,5.64,2.09,5.84,5.12c0.01,0.11,0.01,0.21,0.01,0.32
			c0.21,2.26,0.04,4.56,0.04,6.84L223.9,410.92L223.9,410.92z"/>
		<path id="Path_844_1_" class="st0" d="M212.04,255.63c-0.12-2.42-0.1-4.84,0.06-7.25c0.12-3.03,2.68-5.39,5.71-5.27
			c0.11,0,0.22,0.01,0.33,0.02c2.94-0.19,5.47,2.03,5.67,4.97c0,0.07,0.01,0.14,0.01,0.21c0.29,4.83,0.29,9.68,0,14.51
			c-0.04,2.95-2.46,5.3-5.41,5.26c-0.2,0-0.4-0.02-0.6-0.04c-2.97,0.17-5.52-2.1-5.69-5.08c0-0.03,0-0.05,0-0.08
			c-0.15-2.41-0.17-4.84-0.05-7.25L212.04,255.63L212.04,255.63z"/>
		<path id="Path_845_1_" class="st0" d="M224.01,294.56c0,2.02,0.11,4.03-0.02,6.05c0.25,3.22-2.16,6.03-5.38,6.28
			c-0.18,0.01-0.36,0.02-0.53,0.02c-3.64,0.06-5.96-2.28-6.12-6.5c-0.15-3.89-0.13-7.8,0-11.7c-0.33-3.41,2.17-6.44,5.58-6.78
			c0.11-0.01,0.22-0.02,0.33-0.02c3.54-0.07,5.98,2.68,6.15,6.99C224.09,290.79,224.02,292.67,224.01,294.56L224.01,294.56z"/>
		<path id="Path_846_1_" class="st1" d="M120.6,392.05c-13.86,0-27.72-0.08-41.58,0.06c-3,0.03-4.15-0.53-4.1-3.9
			c0.22-13.03,0.17-26.1,0.02-39.15c-0.02-2.7,0.78-3.35,3.39-3.33c18.03,0.11,36.06,0.02,54.09,0.09c3.03,0.49,5.98-1.24,7.03-4.12
			c1.47-4.26-1.64-7.94-6.83-8.01c-7.8-0.1-15.61-0.03-23.41-0.03c-10.36,0-20.72-0.07-31.08,0.05c-2.38,0.03-3.32-0.45-3.19-3.06
			c0.23-4.83,0.16-9.69,0.02-14.53c-0.05-2.14,0.63-2.76,2.74-2.76c28.66,0.06,57.32,0.06,85.98,0c2.45,0,2.9,0.93,2.85,3.06
			c-0.12,4.84-0.13,9.69,0,14.53c0.06,2.04-0.43,2.95-2.65,2.75c-1.73-0.19-3.48-0.12-5.19,0.19c-3.1,0.35-5.33,3.15-4.97,6.25
			c0,0.02,0.01,0.05,0.01,0.07c0.05,3.12,2.63,5.61,5.75,5.56c0.02,0,0.03,0,0.05,0c7.01,0.53,7.01,0.57,7.01,7.69
			c0,11.71-0.1,23.42,0.07,35.12c0.04,2.88-0.82,3.55-3.6,3.53C148.85,391.97,134.72,392.05,120.6,392.05z"/>
		<path id="Path_847_1_" class="st2" d="M128.02,294.38c2.64-6.98,6.1-13.63,10.31-19.8c1.03-1.57,2.22-3.02,3.55-4.35
			c2.52-2.69,6.74-2.83,9.43-0.32c0.1,0.1,0.2,0.19,0.3,0.3c2.66,2.72,2.61,7.08-0.11,9.73c-0.01,0.01-0.02,0.02-0.02,0.02
			c-3.36,3.09-7.13,5.7-11.2,7.76C136.19,289.94,132.1,292.15,128.02,294.38z"/>
		<path id="Path_848_1_" class="st2" d="M113.5,293.6c-7.89-3.19-15.33-7.4-22.12-12.53c-2.33-1.49-3.61-4.17-3.29-6.92
			c0.32-2.61,2.12-4.8,4.63-5.6c2.45-1.02,5.28-0.35,7.02,1.66C105.51,277.25,110.15,285.14,113.5,293.6z"/>
		<path id="Path_849_1_" class="st1" d="M347.48,385.49c-7.27,0.06-13.2-5.79-13.26-13.06c0-0.09,0-0.19,0-0.28
			c-0.01-7.37,5.96-13.35,13.32-13.37c7.35,0.14,13.27,6.09,13.36,13.45C360.86,379.59,354.85,385.53,347.48,385.49z"/>
		<path id="Path_850_1_" class="st1" d="M282.9,307.75c-7.26,0.16-13.28-5.59-13.44-12.85c0-0.09,0-0.19,0-0.28
			c-0.12-7.37,5.76-13.44,13.13-13.56l0,0c7.36,0.03,13.37,5.89,13.58,13.24C296.2,301.67,290.27,307.67,282.9,307.75z"/>
	</g>
	<g id="Group_1043_1_" transform="translate(-338 -570)">
		<g id="Ellipse_225_1_" transform="translate(985 2986)">
			<circle class="st3" cx="102.22" cy="175.63" r="71.37"/>
			<circle class="st4" cx="102.22" cy="175.63" r="66.71"/>
		</g>
		<g class="st5">
			<path class="st1" d="M1107,3177.44v9.01h-36.11v-7.17l18.43-17.41c4.23-4.03,4.98-6.49,4.98-8.81c0-3.75-2.59-5.94-7.65-5.94
				c-4.1,0-7.58,1.57-9.9,4.78l-8.06-5.19c3.69-5.39,10.38-8.88,18.98-8.88c10.65,0,17.75,5.46,17.75,14.13
				c0,4.64-1.3,8.88-7.99,15.09l-10.99,10.38H1107z"/>
		</g>
	</g>
</g>
</svg>
