<?xml version="1.0" encoding="utf-8"?>
<!-- Generator: Adobe Illustrator 25.2.1, SVG Export Plug-In . SVG Version: 6.00 Build 0)  -->
<svg version="1.1" id="Layer_1" xmlns="http://www.w3.org/2000/svg" xmlns:xlink="http://www.w3.org/1999/xlink" x="0px" y="0px"
	 viewBox="0 0 538.59 595.28" style="enable-background:new 0 0 538.59 595.28;" xml:space="preserve">
<style type="text/css">
	.st0{fill:#E9757D;}
	.st1{fill:#AFAEAE;}
	.st2{fill:none;stroke:#FFFFFF;stroke-width:9.238;}
	.st3{enable-background:new    ;}
	.st4{fill:#FFFFFF;}
</style>
<g id="Group_1086_2_" transform="translate(-1150 -2415)">
	<g id="Group_1040_2_" transform="translate(1169.312 2438.221)">
		<path id="Path_851_2_" class="st0" d="M121.62,397.62c-0.55-0.38-1.13-0.72-1.66-1.13c-14.59-12.25-36.34-10.35-48.59,4.23
			c-1.75,2.09-3.25,4.38-4.47,6.82c-1.54,2.83-1.41,6.29-3.75,8.72v30.93c1.57,1,1.43,2.77,1.9,4.26
			c4.78,14,17.88,23.45,32.67,23.56c14.97,0.12,28.29-9.48,32.88-23.73c3.41-11.66,1.98-23.6,1.19-35.47
			C131.7,408.42,127.87,401.57,121.62,397.62z M115.15,441.27c-0.46,8.93-7.63,16.04-16.55,16.44c-8.94,0.44-16.69-6.14-17.71-15.03
			c-0.88-7.27-0.88-14.62,0-21.89c1.02-8.9,8.76-15.48,17.7-15.05c8.93,0.39,16.1,7.5,16.57,16.43c0.18,3.24,0.03,6.5,0.03,9.76
			C115.17,435.04,115.32,438.17,115.15,441.27L115.15,441.27z"/>
		<path id="Path_852_2_" class="st0" d="M203.88,215.23c-2.51-0.56-5.1-0.72-7.66-0.47c-2.37,0.14-2.97-0.8-2.94-3.04
			c0.14-9.85,0.13-19.74,0.17-29.61c-0.04-8.93-0.05-17.86-0.15-26.77c-0.06-5.24-2.18-8.72-6.58-9.4
			c-7.09-1.06-14.3-1.07-21.39-0.03c-4.06,0.7-6.92,4.37-6.61,8.48c0.11,4.24,3.38,7.73,7.6,8.11c2.29,0.23,4.59,0.28,6.89,0.16
			c2.07-0.09,2.88,0.59,2.85,2.77c-0.15,9.33-0.16,18.65-0.23,27.98c0.07,5.81-0.05,11.63,0.31,17.42c0.2,3.39-1.15,4.19-4.18,3.94
			c-2.96-0.43-5.99-0.01-8.71,1.23c-3.45,1.86-5.17,5.84-4.14,9.62c1.08,4.25,5.11,7.07,9.47,6.62c10.69,0.13,21.37,0.06,32.06,0.02
			c1.08-0.05,2.15-0.22,3.19-0.51c4.04-0.71,6.91-4.31,6.7-8.41C210.54,219.39,207.75,215.99,203.88,215.23z"/>
		<path id="Path_853_2_" class="st0" d="M377.74,215.28c-2.64-0.59-5.36-0.76-8.06-0.53c-1.99,0.06-2.98-0.47-2.92-2.71
			c0.17-6.21,0.18-12.43,0.25-18.64c-0.06-1.48-0.18-2.96-0.18-4.45c-0.02-11.23,0.04-22.46-0.03-33.68
			c-0.04-5.3-2.16-8.68-6.58-9.35c-7.09-1.06-14.3-1.06-21.39,0c-4.25,0.71-7.12,4.72-6.43,8.96c0.27,4.09,3.52,7.34,7.61,7.62
			c2.15,0.22,4.31,0.26,6.47,0.14c2.13-0.11,3.21,0.33,3.11,2.83c-0.21,5.54-0.14,11.09-0.18,16.63c0.04,7.98,0.11,15.95,0.11,23.93
			c0,2.69,0.73,5.94-0.51,7.9c-1.29,2.05-4.75,0.54-7.25,0.78c-6.75,0.65-10.64,5.26-9.19,11.02c1.03,4.11,4.68,6.47,10.47,6.5
			c10.15,0.07,20.29,0.05,30.44,0c1.48-0.02,2.96-0.22,4.39-0.6c3.63-1.01,6.18-4.26,6.29-8.02
			C384.12,219.72,381.5,216.31,377.74,215.28z"/>
		<path id="Path_854_2_" class="st0" d="M420.04,214.77c-1.22,0.08-2.42,0.27-3.6,0.59c-3.64,1.05-6.11,4.43-6.01,8.22
			c-0.05,3.79,2.51,7.12,6.18,8.05c1.58,0.38,3.19,0.57,4.81,0.58c9.9,0.05,19.79,0.05,29.68,0c1.49-0.01,2.97-0.18,4.42-0.5
			c4.54-0.91,7.48-5.33,6.56-9.87c-0.67-3.34-3.29-5.94-6.64-6.58c-1.73-0.32-3.48-0.49-5.23-0.5c-6.09-0.14-5.26,0.74-5.29-5.52
			c-0.04-8.81,0-17.62,0-26.43c0-9.22,0.06-18.43-0.02-27.65c-0.04-4.95-1.94-8.31-5.92-9.06c-7.47-1.35-15.12-1.36-22.6-0.02
			c-4.05,0.93-6.65,4.9-5.87,8.98c0.35,3.93,3.46,7.05,7.39,7.41c1.88,0.28,3.78,0.33,5.68,0.15c3.53-0.46,4.19,1.03,4.14,4.29
			c-0.19,13.28-0.08,26.56-0.08,39.84C427.63,214.27,427.63,214.25,420.04,214.77z"/>
		<path id="Path_855_2_" class="st0" d="M82.69,336.33c-3.13-0.39-6.28,0.67-8.53,2.89c-2.31,2.44-2.9,6.04-1.5,9.1
			c1.49,3.48,5.04,5.62,8.82,5.32c9.07,0.07,18.14,0.1,27.21,0.14c2.68,0.01,5.36-0.15,8.03-0.48c4.34-0.63,7.42-4.56,6.99-8.93
			c-0.22-4.37-3.79-7.83-8.17-7.9c-2.81-0.21-5.63-0.24-8.45-0.34c-0.82-0.31-0.78-1-0.78-1.67c0.02-19.91,0.04-39.83,0.06-59.74
			l0,0c-0.14-3.68-2.85-6.74-6.49-7.32c-7.09-1.09-14.31-1.09-21.4,0c-3.92,0.67-6.71,4.18-6.48,8.15
			c-0.07,3.93,2.63,7.37,6.47,8.23c2.37,0.59,4.83,0.74,7.26,0.46c2.94-0.31,3.56,0.84,3.53,3.62c-0.14,13.94-0.06,27.89-0.06,41.83
			C89.19,336.28,89.19,336.33,82.69,336.33z"/>
		<path id="Path_856_2_" class="st0" d="M204.17,458.22c-2.1-0.57-4.29-0.71-6.45-0.4c-3.48,0.39-4.55-0.65-4.5-4.35
			c0.22-18,0.11-36,0.1-54c0-8.01-3.01-10.98-11.09-11.02c-4.87-0.02-9.75-0.11-14.62,0.05c-4.71-0.21-8.69,3.44-8.9,8.15
			c-0.01,0.14-0.01,0.28-0.01,0.43c0.09,4.7,3.89,8.48,8.59,8.57c2.03,0.14,4.06,0.16,6.09,0.04c1.8-0.08,2.72,0.38,2.71,2.45
			c-0.06,15.7-0.06,31.4,0,47.11c0,1.95-0.66,2.73-2.59,2.54c-1.21-0.12-2.43-0.09-3.64-0.14c-1.75,0.11-3.48,0.37-5.19,0.77
			c-4.45,1.39-6.93,6.13-5.54,10.58c0.33,1.05,0.86,2.02,1.56,2.87c2.11,2.36,5.22,3.56,8.37,3.21c9.74,0.03,19.48,0.11,29.21,0.17
			c1.48-0.11,2.97-0.18,4.44-0.33c4.08-0.23,7.38-3.42,7.74-7.5C210.99,463.21,208.29,459.25,204.17,458.22z"/>
		<path id="Path_857_2_" class="st0" d="M381.02,459.88c-2.34-1.65-5.17-2.45-8.02-2.25c-6.21,0.31-6.21,0.31-6.21-5.65
			c0-17.73,0.03-35.47-0.02-53.19c-0.02-7.25-3.11-10.27-10.4-10.33c-5.14-0.05-10.29-0.12-15.43,0.06
			c-4.57-0.17-8.41,3.39-8.59,7.96c-0.01,0.14-0.01,0.27-0.01,0.41c-0.1,4.71,3.63,8.62,8.34,8.75c2.03,0.18,4.06,0.19,6.09,0.04
			c2.09-0.14,2.81,0.55,2.8,2.72c-0.08,15.57-0.08,31.13,0,46.7c0,2.2-0.75,2.76-2.81,2.72c-2.83-0.32-5.69-0.14-8.46,0.53
			c-3.91,1.18-6.4,5.01-5.89,9.07c0.34,3.92,3.42,7.05,7.34,7.45c1.6,0.2,3.23,0.26,4.84,0.38c2.7-0.06,5.4-0.16,8.11-0.18
			c7.7-0.05,15.42,0.02,23.13-0.12c3.67,0.1,6.92-2.37,7.82-5.93C384.82,465.72,383.76,462.05,381.02,459.88z"/>
		<path id="Path_858_2_" class="st0" d="M456.17,458.32c-2.08-0.65-4.28-0.82-6.44-0.49c-3.86,0.5-4.98-0.74-4.93-4.76
			c0.25-18.02,0.14-36.03,0.09-54.06c-0.02-7.53-3.08-10.47-10.65-10.58c-3.11-0.04-6.23-0.09-9.34-0.14
			c-1.48,0.06-2.97,0.14-4.45,0.17c-5.54,0.12-8.97,2.42-9.85,6.61c-0.96,4.58,1.02,7.9,6.24,10.45c2.71,0.06,5.42,0.31,8.12,0.15
			c2.2-0.12,2.7,0.71,2.69,2.77c-0.07,15.58-0.07,31.17,0,46.75c0,2.27-0.83,2.68-2.83,2.64c-2.7-0.29-5.43-0.15-8.08,0.41
			c-3.98,0.97-6.66,4.7-6.32,8.78c0.02,4.14,3.26,7.55,7.39,7.79c12.32,0.23,24.64,0.23,36.98,0c4.13-0.3,7.34-3.72,7.37-7.86
			C462.39,463.02,459.91,459.47,456.17,458.32z"/>
		<path id="Path_859_2_" class="st0" d="M106.65,279.12c0.02,17.68,0.03,35.37,0.03,53.05c0,1.31-0.41,2.7,0.4,3.95
			c-0.3-8.84-0.13-17.7,0.49-26.52c-0.55-1.38-0.73-2.89-0.52-4.36c-0.03-8.75,0-17.51-0.03-26.26c0-1.43,0.45-2.98-0.66-4.27l0,0
			C106.74,276.16,106.84,277.65,106.65,279.12z"/>
		<path id="Path_860_2_" class="st0" d="M106.31,334.45c0,0.67-0.04,1.37,0.78,1.67c-0.82-1.23-0.4-2.63-0.4-3.95
			c-0.02-17.68-0.03-35.36-0.04-53.05c0.19-1.48,0.09-2.97-0.28-4.41l0,0C106.35,294.63,106.33,314.54,106.31,334.45z"/>
		<path id="Path_861_2_" class="st0" d="M65.13,208.66c6.09,18.07,25.67,27.79,43.74,21.7c10.28-3.46,18.34-11.56,21.75-21.85
			c3.14-9.94,2.02-20.17,1.64-30.26c-0.63-15.58-11.74-28.76-27-32c-15.23-3.23-30.76,4-38.09,17.74c-1.64,2.94-1.54,6.57-4.02,9.06
			v30.91C64.66,205.17,64.61,207.06,65.13,208.66z M80.89,177.68c1.1-8.73,8.66-15.18,17.45-14.89c8.94,0.28,16.2,7.3,16.78,16.22
			c0.21,3.24,0.04,6.5,0.04,9.75h0.05c0,2.98,0.1,5.96-0.02,8.93c-0.11,8.93-7.05,16.29-15.96,16.94
			c-9.19,0.95-17.4-5.73-18.35-14.91c-0.01-0.05-0.01-0.1-0.02-0.16C79.98,192.29,79.99,184.94,80.89,177.68L80.89,177.68z"/>
		<path id="Path_862_2_" class="st0" d="M279.16,146.25c-15.23-3.23-30.76,4.01-38.08,17.74c-1.64,2.94-1.54,6.57-4.02,9.06v30.91
			c1.5,1.21,1.45,3.08,1.97,4.69c6.09,18.07,25.68,27.78,43.75,21.7c10.28-3.46,18.33-11.55,21.75-21.84
			c3.14-9.94,2.02-20.17,1.64-30.26C305.53,162.67,294.41,149.49,279.16,146.25z M289.08,197.69c-0.11,8.94-7.05,16.3-15.97,16.94
			c-9.18,0.95-17.4-5.72-18.35-14.91c-0.01-0.05-0.01-0.11-0.02-0.16c-0.88-7.27-0.87-14.62,0.04-21.88
			c1.1-8.73,8.66-15.18,17.45-14.89c8.94,0.28,16.2,7.3,16.78,16.22c0.22,3.24,0.04,6.5,0.04,9.75h0.05
			C289.1,191.73,289.19,194.72,289.08,197.69z"/>
		<path id="Path_863_2_" class="st0" d="M279.16,267.76c-15.23-3.23-30.76,4.01-38.08,17.75c-1.64,2.94-1.54,6.57-4.02,9.06v30.91
			c1.5,1.2,1.45,3.08,1.97,4.7c6.09,18.07,25.68,27.78,43.75,21.7c10.28-3.46,18.33-11.55,21.75-21.84
			c3.14-9.94,2.02-20.17,1.64-30.26C305.53,284.18,294.41,271,279.16,267.76z M289.08,319.2c-0.11,8.94-7.05,16.3-15.97,16.94
			c-9.18,0.95-17.4-5.72-18.35-14.9c-0.01-0.06-0.01-0.11-0.02-0.17c-0.88-7.27-0.87-14.62,0.04-21.88
			c1.1-8.73,8.66-15.18,17.45-14.89c8.93,0.28,16.19,7.3,16.78,16.22c0.22,3.24,0.04,6.5,0.04,9.75h0.05
			C289.1,313.24,289.19,316.23,289.08,319.2z"/>
		<path id="Path_864_2_" class="st0" d="M471.13,299.76c-0.63-15.58-11.74-28.76-27-32c-15.23-3.23-30.76,4.01-38.08,17.75
			c-1.64,2.94-1.54,6.57-4.02,9.06v30.91c1.5,1.2,1.45,3.08,1.97,4.7c6.09,18.07,25.67,27.79,43.74,21.7
			c10.28-3.46,18.34-11.56,21.75-21.85C472.64,320.09,471.52,309.85,471.13,299.76z M454.05,319.2c-0.11,8.94-7.05,16.3-15.97,16.94
			c-9.18,0.95-17.4-5.72-18.35-14.91c-0.01-0.05-0.01-0.11-0.02-0.16c-0.88-7.27-0.86-14.62,0.04-21.88
			c1.1-8.73,8.66-15.18,17.45-14.89c8.93,0.28,16.19,7.3,16.78,16.22c0.21,3.24,0.03,6.5,0.03,9.75h0.05
			C454.07,313.24,454.17,316.23,454.05,319.2L454.05,319.2z"/>
		<path id="Path_865_2_" class="st0" d="M279.16,389.09c-15.23-3.23-30.76,4.01-38.08,17.75c-1.64,2.94-1.54,6.57-4.02,9.06v30.91
			c1.5,1.2,1.45,3.08,1.97,4.7c6.09,18.07,25.68,27.78,43.75,21.7c10.28-3.46,18.33-11.55,21.75-21.84
			c3.14-9.94,2.02-20.17,1.64-30.27C305.53,405.5,294.41,392.33,279.16,389.09z M289.08,440.53c-0.11,8.94-7.05,16.3-15.97,16.94
			c-9.18,0.95-17.4-5.72-18.35-14.9c-0.01-0.06-0.01-0.11-0.02-0.17c-0.88-7.27-0.87-14.62,0.04-21.88
			c1.1-8.73,8.66-15.18,17.45-14.89c8.93,0.28,16.2,7.3,16.78,16.22c0.22,3.24,0.04,6.5,0.04,9.75h0.05
			C289.1,434.57,289.19,437.56,289.08,440.53z"/>
		<path id="Path_866_2_" class="st0" d="M202.61,336.5c-1.89-0.21-3.79-0.23-5.68-0.08c-2.81,0.28-3.73-0.67-3.68-3.58
			c0.18-9.34,0.06-18.69,0.06-28.02s0.06-18.69-0.02-28.04c-0.04-5.2-2.32-8.67-6.63-9.37c-7.09-1.14-14.31-1.14-21.4,0
			c-3.88,0.77-6.65,4.2-6.59,8.16c0.09,3.91,2.78,7.28,6.57,8.24c2.37,0.59,4.83,0.76,7.26,0.49c2.93-0.26,3.63,0.92,3.61,3.7
			c-0.13,13.14-0.06,26.28-0.06,39.41c0,8.53,0,8.53-8.44,9.02c-4.74-0.15-8.71,3.57-8.87,8.31c-0.03,1.05,0.12,2.09,0.47,3.08
			c1.42,3.83,5.24,6.22,9.31,5.81c10.7,0.07,21.4,0.03,32.11,0c1.08,0,2.16-0.12,3.21-0.38c4.17-0.84,7.03-4.69,6.64-8.93
			C210.27,340.08,206.86,336.69,202.61,336.5z"/>
		<path id="Path_867_2_" class="st0" d="M366.76,276.68c-0.06-5.9-2.54-9.08-8.22-9.61c-6.32-0.74-12.71-0.67-19.02,0.2
			c-4.27,0.4-7.45,4.12-7.18,8.4c-0.04,4.09,2.93,7.59,6.98,8.21c2.39,0.49,4.84,0.63,7.27,0.41c2.33-0.13,2.99,0.73,2.97,3.01
			c-0.09,15.3-0.09,30.61,0,45.91c0.02,2.46-0.67,3.39-3.2,3.23c-2.57-0.2-5.15-0.1-7.7,0.31c-4.15,0.96-6.88,4.93-6.29,9.14
			c0.43,4.55,4.37,7.94,8.93,7.7c11.24,0.14,22.48,0.06,33.72,0.02c0.94-0.04,1.87-0.21,2.77-0.51c4.5-1.25,7.14-5.91,5.89-10.41
			c-0.92-3.34-3.79-5.77-7.23-6.15c-2.02-0.23-4.06-0.27-6.08-0.12c-2.85,0.25-3.74-0.84-3.7-3.68c0.15-9.34,0.06-18.69,0.06-28.02
			C366.74,295.38,366.85,286.02,366.76,276.68z"/>
	</g>
	<g id="Group_1046_2_" transform="translate(369 -797)">
		<g id="Ellipse_227_2_" transform="translate(789 3212)">
			<circle class="st1" cx="110.46" cy="167.64" r="70.82"/>
			<circle class="st2" cx="110.46" cy="167.64" r="66.21"/>
		</g>
		<g class="st3">
			<path class="st4" d="M920.65,3397.39h-7.72v9.96h-10.7v-9.96h-25.54v-7.38l22.36-30.08h11.52l-20.73,28.52h12.74v-8.88h10.37
				v8.88h7.72V3397.39z"/>
		</g>
	</g>
</g>
</svg>
