<?xml version="1.0" encoding="utf-8"?>
<!-- Generator: Adobe Illustrator 25.2.1, SVG Export Plug-In . SVG Version: 6.00 Build 0)  -->
<svg version="1.1" id="Layer_1" xmlns="http://www.w3.org/2000/svg" xmlns:xlink="http://www.w3.org/1999/xlink" x="0px" y="0px"
	 viewBox="0 0 538.59 595.28" style="enable-background:new 0 0 538.59 595.28;" xml:space="preserve">
<style type="text/css">
	.st0{fill:#FEDB76;}
	.st1{fill:#AFAEAE;}
	.st2{fill:none;stroke:#FFFFFF;stroke-width:9.4224;}
	.st3{enable-background:new    ;}
	.st4{fill:#FFFFFF;}
</style>
<g id="Group_1085_1_" transform="translate(-899 -2416)">
	<g id="Group_1037_1_" transform="translate(922.368 2449.604)">
		<path id="Path_816_1_" class="st0" d="M471.23,188.62c-0.11-16.26-12.8-28.27-30.05-28.5c-6.19-0.08-12.38-0.04-18.57,0
			c-4.71,0.02-7.12,1.88-7.14,5.37c-0.02,3.49,2.51,5.52,7.05,5.56c6.06,0.06,12.12-0.03,18.18,0.02
			c11.33,0.09,18.87,7.22,18.92,17.9c0.05,9.86-0.13,19.73,0.1,29.59c0.07,3.14-0.65,3.98-4.12,3.97
			c-60.72-0.12-121.46-0.15-182.2-0.09c-60.99,0-121.98,0.02-182.97,0.07c-2.97,0-3.86-0.63-3.78-3.53
			c0.23-8.52,0.07-17.04,0.09-25.57c-0.14-2.67-0.05-5.36,0.26-8.01c1.44-8.21,8.96-14.43,19.76-14.41
			c94.64,0.16,189.29,0.19,283.93,0.09c1.54,0.09,3.09,0.02,4.62-0.19c2.83-0.2,4.96-2.67,4.76-5.5c-0.01-0.08-0.01-0.15-0.02-0.23
			c-0.12-2.88-2.54-5.12-5.42-5c-0.04,0-0.09,0-0.13,0.01c-1.28-0.07-2.58-0.04-3.87-0.04H119.46c-5.16,0-10.32-0.08-15.47,0.05
			c-12.35,0.07-23.33,7.86-27.47,19.5c-0.38,1.08-0.12,2.48-1.39,3.23v93.52c2.02,2.27,4.08,4.43,7.73,3.12
			c3.59-1.29,3.92-4.06,3.9-7.16c-0.06-11.93,0.05-23.87-0.08-35.8c-0.03-2.49,0.55-3.25,3.34-3.25
			c122.11,0.07,244.22,0.07,366.33,0c2.74,0,3.37,0.67,3.37,3.21c-0.08,60.03-0.1,120.06-0.08,180.09
			c0,10.44-7.56,17.57-18.69,17.74c-6.19,0.09-12.38,0.02-18.57,0.02c-10.19,0-20.37-0.05-30.56,0.02c-5.31,0.04-8.35,3.9-6.32,7.85
			c1.31,2.26,3.87,3.49,6.45,3.1c16.38-0.04,32.75,0,49.13-0.05c2.19,0.02,4.37-0.17,6.52-0.59c13.87-2.33,23.94-14.47,23.65-28.53
			c0.03-63.44,0.03-126.89,0-190.33C471.25,213.46,471.32,201.04,471.23,188.62z"/>
		<path id="Path_817_1_" class="st0" d="M352.02,434.65c-1.43-0.39-2.92-0.52-4.4-0.38c-20.46,0-40.93-0.25-61.39,0.15
			c-5.02,0.41-9.9-1.74-12.98-5.73c-1.37-1.65-1.35-2.36,0.11-3.77c5.31-5.15,10.5-10.42,15.7-15.67c6-6.04,4.53-12.81-3.45-15.78
			c-31.43-11.68-62.86-23.37-94.29-35.06c-4.28-1.6-8.17-1.95-11.62,1.46s-3.11,7.42-1.53,11.62c5.8,15.4,11.56,30.82,17.27,46.26
			c2,5.36,3.94,10.75,5.97,16.31c-0.87,0.08-1.35,0.17-1.83,0.17c-31.8,0-63.61,0.06-95.42-0.02c-9.45,0.49-17.5-6.77-17.99-16.22
			c-0.03-0.67-0.03-1.33,0.01-2c-0.03-20.96-0.03-41.92,0-62.88c0-18.13-0.03-36.25,0.03-54.37c0-2.95-0.63-5.47-3.56-6.63
			c-3.26-1.29-5.5,0.65-7.56,2.83v127.3c0.19,0.14,0.48,0.25,0.54,0.43c5.69,16.65,14.17,22.69,31.83,22.69
			c31.44,0,62.87,0.04,94.31-0.07c2.85,0,4.34,0.57,5.28,3.54c1.83,5.85,4.19,11.54,6.38,17.27c2.88,7.56,9.6,9.08,15.31,3.43
			c5.18-5.11,10.42-10.16,15.37-15.48c2.08-2.24,3.17-1.84,5.05,0.12c5.28,5.52,10.7,10.92,16.19,16.23
			c3.24,3.76,8.91,4.18,12.67,0.94c0.19-0.17,0.38-0.34,0.56-0.52c4.14-3.87,8.13-7.91,12.02-12.04c3.06-2.95,3.57-7.66,1.23-11.21
			c-0.36-0.67-1.4-1.17-0.69-2.24c18.72,0,37.45,0,56.2,0c1.23,0.04,2.46,0.01,3.69-0.11c2.59-0.17,4.62-2.3,4.65-4.89
			C356.04,437.8,354.49,435.37,352.02,434.65z M279.51,454.41c-2.51,2.16-4.73,6.37-7.17,6.43c-2.33,0.07-4.81-4.01-7.16-6.33
			c-4.56-4.5-9.05-9.08-13.61-13.58c-3.58-3.53-6.27-3.53-9.82,0c-6.18,6.13-12.32,12.31-18.84,18.83l-33.57-90.23l90.28,33.61
			c-6.19,6.16-12.08,12.01-17.95,17.86c-4.76,4.75-4.77,6.91-0.06,11.62c5.92,5.93,11.8,11.91,17.81,17.74
			C280.99,451.9,281.34,452.83,279.51,454.41z"/>
		<path id="Path_818_1_" class="st0" d="M137.33,349.53c0.94,2.74,2.3,4.94,5.58,5.03c3.45,0.08,5-2.12,5.94-5.03
			c0.11-0.35,0.21-0.71,0.33-1.06c4.21-11.78,8.43-23.56,12.82-35.87c0.56,1.53,0.94,2.51,1.28,3.53
			c3.73,10.92,7.46,21.85,11.18,32.78c0.99,2.92,2.16,5.62,5.87,5.65c3.67,0.02,4.93-2.47,5.97-5.47
			c5.58-16.13,11.27-32.23,16.91-48.34c1.99-5.68,1.26-8.76-2.32-9.97c-3.74-1.26-6.12,0.58-8.12,6.3
			c-4.01,11.44-8.02,22.88-12.21,34.82c-0.54-1.44-0.91-2.34-1.23-3.26c-3.9-11.39-7.83-22.76-11.68-34.16
			c-0.67-3.05-3.69-4.98-6.74-4.3c-2.11,0.46-3.77,2.09-4.28,4.19c-1.54,4.4-3.07,8.81-4.64,13.21c-2.83,7.91-5.65,15.81-8.79,24.55
			c-0.73-1.99-1.15-3.08-1.53-4.19c-3.71-10.81-7.43-21.61-11.14-32.41c-1.44-4.15-4.05-5.76-7.44-4.71
			c-3.23,0.99-4.43,4.12-3.06,8.2c2.03,6.06,4.11,12.1,6.18,18.13C129.92,327.94,133.62,338.73,137.33,349.53z"/>
		<path id="Path_819_1_" class="st0" d="M254.49,354.55c2.56,0.01,4.79-1.75,5.38-4.25c1.24-3.47,2.48-6.93,3.72-10.4l9.82-27.49
			c4.44,13.04,8.57,25.13,12.66,37.22c0.94,2.77,2.36,4.88,5.63,4.92c3.28,0.04,4.79-2.02,5.75-4.78c2.2-6.26,4.4-12.51,6.57-18.77
			c3.84-11.01,7.71-22.02,11.47-33.06c1.16-2.71-0.1-5.85-2.81-7.01c-0.15-0.06-0.29-0.12-0.45-0.17c-2.88-1.03-6.05,0.47-7.08,3.35
			c-0.02,0.06-0.04,0.12-0.06,0.18c-0.34,0.79-0.56,1.62-0.85,2.43c-4.03,11.48-8.07,22.98-12.11,34.5
			c-1.15-0.66-1.11-1.61-1.39-2.4c-3.87-11.27-7.77-22.52-11.56-33.81c-0.94-2.84-2.42-4.89-5.62-4.92
			c-3.2-0.03-4.73,1.91-5.73,4.77c-3.58,10.33-7.25,20.62-11.01,30.88c-0.44,2.11-1.32,4.1-2.57,5.84
			c-4.2-12.25-8.3-24.3-12.48-36.34c-1.4-4.03-4.27-5.61-7.61-4.4c-3.05,1.11-4.22,4.15-2.89,8.06
			c5.83,17.08,11.69,34.15,17.59,51.21C249.43,352.76,251.8,354.62,254.49,354.55z"/>
		<path id="Path_820_1_" class="st0" d="M401.2,354.55c2.82,0.1,5.29-1.87,5.81-4.65c5.93-17.05,11.94-34.08,17.88-51.12
			c1.35-3.87,0.18-6.89-2.9-7.99c-3.3-1.18-6.16,0.44-7.6,4.44c-1.57,4.4-3.06,8.82-4.6,13.22c-2.67,7.62-5.36,15.23-8.33,23.63
			c-4.34-12.77-8.42-24.67-12.43-36.6c-1.01-3.01-2.4-5.47-6.05-5.4c-3.45,0.07-4.71,2.46-5.73,5.34
			c-4.22,12.03-8.53,24.02-12.83,36.09c-1.36-0.98-1.39-2.46-1.82-3.69c-3.79-10.9-7.47-21.85-11.27-32.75
			c-1.62-4.65-6.5-6.04-9.51-2.85c-1.67,1.9-2.01,4.63-0.85,6.88c5.78,16.71,11.52,33.44,17.22,50.18c0.97,2.83,2.26,5.25,5.76,5.28
			c3.68,0.03,4.95-2.48,6-5.46c4.2-11.93,8.48-23.82,12.78-35.85c1.09,0.69,1.09,1.61,1.37,2.42c3.89,11.39,7.78,22.77,11.67,34.16
			C396.69,352.47,398.13,354.46,401.2,354.55z"/>
		<path id="Path_821_1_" class="st0" d="M179.95,197c-0.13,5.68,4.37,10.39,10.05,10.52c5.68,0.13,10.39-4.37,10.52-10.05
			c0.13-5.68-4.37-10.39-10.05-10.52c-0.09,0-0.18,0-0.28,0C184.65,187.06,180.16,191.47,179.95,197z"/>
		<path id="Path_822_1_" class="st0" d="M146.86,197.41c0.16,5.54,4.63,9.98,10.16,10.1c5.68,0.07,10.34-4.48,10.41-10.16
			c0.07-5.68-4.48-10.34-10.16-10.41c-5.68-0.07-10.34,4.48-10.41,10.16C146.85,197.2,146.85,197.3,146.86,197.41z"/>
		<path id="Path_823_1_" class="st0" d="M112,197.23c0.06,5.63,4.68,10.13,10.3,10.07c5.62-0.06,10.13-4.68,10.07-10.3
			c-0.06-5.56-4.57-10.04-10.13-10.07C116.57,186.96,112,191.57,112,197.23z"/>
	</g>
	<g id="Group_1044_1_" transform="translate(-554 -570)">
		<g id="Ellipse_226_1_" transform="translate(1459 2986)">
			<circle class="st1" cx="110.18" cy="160.38" r="72.24"/>
			<circle class="st2" cx="110.18" cy="160.38" r="67.53"/>
		</g>
		<g class="st3">
			<path class="st4" d="M1591.86,3156.72c0,8.15-6.29,15.61-20.04,15.61c-6.77,0-13.75-1.87-18.45-5.18l4.35-8.57
				c3.66,2.76,8.77,4.35,13.82,4.35c5.6,0,9.05-2.28,9.05-6.22c0-3.66-2.69-5.94-9.05-5.94h-5.11v-7.39l9.95-11.26h-20.59v-8.98
				h33.85v7.25l-10.92,12.44C1587.44,3144.21,1591.86,3149.6,1591.86,3156.72z"/>
		</g>
	</g>
</g>
</svg>
