<?xml version="1.0" encoding="utf-8"?>
<!-- Generator: Adobe Illustrator 25.2.1, SVG Export Plug-In . SVG Version: 6.00 Build 0)  -->
<svg version="1.1" id="Layer_1" xmlns="http://www.w3.org/2000/svg" xmlns:xlink="http://www.w3.org/1999/xlink" x="0px" y="0px"
	 viewBox="0 0 538.59 595.28" style="enable-background:new 0 0 538.59 595.28;" xml:space="preserve">
<style type="text/css">
	.st0{fill:#E9757D;}
	.st1{fill:#202020;}
	.st2{fill:#575757;}
	.st3{fill:#FFFFFF;}
	.st4{fill:#AFAEAE;}
	.st5{fill:none;stroke:#FFFFFF;stroke-width:9.5494;}
	.st6{enable-background:new    ;}
</style>
<g id="Group_1083_1_" transform="translate(-348 -2416)">
	<g id="Group_1038_1_" transform="translate(396.388 2434.902)">
		<path id="Path_824_1_" class="st0" d="M83.36,145.16c2.21-4.16,6.79-6.5,11.46-5.84c7.27,0.32,14.56-0.02,21.84,0.03
			c22.85,0.18,39.19,13.71,43.65,36.05c1.86,9.33,3.88,18.63,5.5,28.01c0.51,2.95,1.45,3.82,4.46,3.82
			c18.8-0.15,37.61-0.07,56.41-0.08c3.84-0.32,7.4,2.01,8.65,5.65c1.28,3.18,0.38,6.82-2.23,9.03c-2.04,1.73-4.72,2.54-7.38,2.21
			c-16.95-0.02-33.9-0.02-50.85,0h-4.74c2.48,12.46,4.91,24.67,7.35,36.88c5.7,28.51,11.39,57.03,17.09,85.54
			c1.86,9.29,3.77,18.57,5.52,27.87c0.32,1.64,0.88,2.37,2.52,2.26c0.79-0.05,1.59,0,2.38,0c65.94,0,131.89,0.03,197.83,0.08
			c3.35,0,4.51-0.86,4.99-4.21c0.87-6.14,2.36-12.19,3.64-18.27c0.5-4.77,4.76-8.24,9.54-7.74c0.07,0.01,0.14,0.02,0.22,0.02
			c4.64,0.72,7.82,5.07,7.09,9.71c-0.05,0.32-0.12,0.65-0.21,0.96c-1.79,9.75-3.76,19.46-5.81,29.15c-0.64,4.42-4.56,7.62-9.02,7.35
			c-1.19,0.06-2.38,0-3.57,0H200.72c-13.5,0-27-0.07-40.51,0.04c-4.57-0.41-8.6,2.96-9.01,7.53c-0.11,1.22,0.05,2.46,0.48,3.61
			c1.04,3.25,4,5.51,7.42,5.66c1.32,0.09,2.65,0.1,3.97,0.05h281.25c1.32,0,2.65-0.07,3.97,0.05c4.44,0.25,7.9,3.95,7.84,8.4
			c0.12,4.46-3.36,8.18-7.81,8.36c-0.92,0.08-1.85,0.07-2.78,0.07c-94.81,0-189.62,0-284.43,0c-13.29,0-23.37-7.54-26.15-19.32
			c-3.34-13.64,5.01-27.42,18.66-30.76c2.1-0.51,4.26-0.76,6.42-0.73c6.62-0.15,13.25-0.16,19.86,0.04c2.68,0.08,3.1-0.83,2.62-3.18
			c-10.26-50.8-20.48-101.61-30.68-152.42c-2.8-13.98-5.47-27.99-8.14-42.02c-2.81-14.72-12.41-22.72-27.42-22.75
			c-7.28,0-14.58-0.18-21.85,0.09c-4.74,0.69-9.33-1.97-11.08-6.42L83.36,145.16z"/>
		<path id="Path_825_1_" class="st0" d="M390.04,105.43c6.31,1.66,12.82,2.2,19.14,3.9c58.69,16.13,93.19,76.79,77.06,135.48
			c-16.14,58.69-76.8,93.19-135.49,77.06c-40.13-11.03-70.62-43.73-78.83-84.53c-12.71-60.41,29.15-120.8,90.38-130.49
			c2.09-0.32,4.44,0.11,6.28-1.42h3.18c0.36,0.44,1.01,0.5,1.45,0.14c0.05-0.04,0.1-0.09,0.14-0.14h7.96c1.52,0.65,3.25,0.65,4.77,0
			C386.08,105.43,390.04,105.43,390.04,105.43z"/>
		<path id="Path_826_1_" class="st1" d="M386.06,105.43c-1.36,1.21-3.41,1.21-4.77,0H386.06z"/>
		<path id="Path_827_1_" class="st2" d="M373.35,105.43c-0.53,0.84-1.06,1.07-1.59,0H373.35z"/>
		<path id="Path_828_1_" class="st0" d="M252.76,478.46c-0.06,18.69-15.26,33.8-33.96,33.74c-18.69-0.06-33.8-15.26-33.74-33.96
			c0.06-18.69,15.26-33.8,33.96-33.74c0.06,0,0.11,0,0.17,0C237.82,444.64,252.83,459.82,252.76,478.46z"/>
		<path id="Path_829_1_" class="st0" d="M371.57,444.5c18.69,0.35,33.56,15.8,33.2,34.49c-0.34,18.18-14.98,32.84-33.16,33.21
			c-18.69,0.38-34.15-14.47-34.53-33.16s14.47-34.15,33.16-34.53C370.68,444.49,371.12,444.49,371.57,444.5z"/>
		<path id="Path_830_1_" class="st3" d="M473.18,213.16c1.96,49.68-38.87,93.7-88.68,95.59c-51.75,1.97-95.67-37.83-97.67-88.52
			c-2.47-51.52,37.29-95.29,88.81-97.76c0.66-0.03,1.33-0.06,1.99-0.07C428.3,120.5,471.13,161.18,473.18,213.16z"/>
		<path id="Path_831_1_" class="st3" d="M219.16,461.37c9.37,0.17,16.83,7.9,16.67,17.27c-0.17,9.22-7.66,16.62-16.88,16.67
			c-9.45-0.15-17.02-7.87-16.98-17.32C202.21,468.7,209.85,461.3,219.16,461.37z"/>
		<path id="Path_832_1_" class="st3" d="M371.73,461.37c9.37,0.17,16.83,7.9,16.66,17.28c-0.17,9.24-7.69,16.64-16.93,16.66
			c-9.37,0.02-16.99-7.56-17.01-16.93c-0.02-9.37,7.56-16.99,16.93-17.01C371.5,461.37,371.61,461.37,371.73,461.37z"/>
		<path id="Path_833_1_" class="st0" d="M430.68,182.1c-0.04,2.19-0.95,4.27-2.52,5.8c-19.43,22.22-38.86,44.43-58.31,66.63
			c-2.67,3.78-7.9,4.68-11.69,2.01c-0.67-0.47-1.27-1.05-1.78-1.69c-10.91-10.81-21.77-21.66-32.59-32.56
			c-3.64-3-4.16-8.38-1.17-12.02c0.19-0.22,0.38-0.44,0.59-0.65c3.67-3.55,8.47-3.3,12.63,0.81c8.18,8.1,16.36,16.22,24.4,24.46
			c1.82,1.87,2.71,1.91,4.46-0.12c16.55-19.1,33.26-38.08,49.87-57.13c2.58-2.95,5.36-5.13,9.58-4.12
			C428.16,174.39,430.93,178.03,430.68,182.1z"/>
	</g>
	<g id="Group_1042_1_" transform="translate(-190 -570)">
		<g id="Ellipse_224_1_" transform="translate(545 2986)">
			<circle class="st4" cx="66.21" cy="137.38" r="73.21"/>
			<circle class="st5" cx="66.21" cy="137.38" r="68.44"/>
		</g>
		<g class="st6">
			<path class="st3" d="M620.71,3099.83v49.02h-11.34v-39.91h-9.8v-9.1H620.71z"/>
		</g>
	</g>
</g>
</svg>
