<?xml version="1.0" encoding="utf-8"?>
<!-- Generator: Adobe Illustrator 25.2.1, SVG Export Plug-In . SVG Version: 6.00 Build 0)  -->
<svg version="1.1" id="Layer_1" xmlns="http://www.w3.org/2000/svg" xmlns:xlink="http://www.w3.org/1999/xlink" x="0px" y="0px"
	 viewBox="0 0 538.59 595.28" style="enable-background:new 0 0 538.59 595.28;" xml:space="preserve">
<style type="text/css">
	.st0{fill:#F9AB78;}
	.st1{fill:#444545;}
	.st2{fill:#8C8C8C;}
	.st3{fill:#666766;}
	.st4{fill:#4B4B4B;}
	.st5{fill:#FFFFFF;}
	.st6{fill:#AFAEAE;}
	.st7{fill:none;stroke:#FFFFFF;stroke-width:9.1712;}
	.st8{enable-background:new    ;}
</style>
<g id="Group_1088" transform="translate(-1389 -2412)">
	<g id="Group_1041" transform="translate(1419.722 2444.448)">
		<path id="Path_868" class="st0" d="M103.49,324.32v-3.36c0.55-1.28,0.55-2.73,0-4.01v-4.01c0.55-1.28,0.55-2.73,0-4.01v-3.35
			c0.37-0.3,0.42-0.85,0.12-1.22c-0.04-0.04-0.07-0.08-0.12-0.12v-3.35c0.61-8.4,1.81-16.76,3.58-24.99
			c11.49-48.87,43.65-90.34,88.13-113.62c20.8-11.13,43.84-17.45,67.41-18.5c14.11-0.87,28.27-0.25,42.25,1.83
			c52.52,9.46,97.72,42.66,122.45,89.94c11.13,20.8,17.45,43.84,18.48,67.41c0.87,14.11,0.26,28.26-1.83,42.24
			c-5.13,29.47-18,57.05-37.3,79.91c-14.49,17.45-32.29,31.86-52.37,42.4c-17.49,9.2-36.48,15.23-56.08,17.79
			c-3.6,0.47-7.29,0.16-10.89,0.78h-1.34c-0.4-0.44-0.92-0.31-1.43-0.34h-1.15c-0.5,0.02-1.03-0.09-1.43,0.34H268.6
			c-0.76-0.64-1.66-0.22-2.49-0.34h-1.28c-0.54,0.04-1.14-0.14-1.58,0.34h-2.67c-5.23-0.95-10.57-0.78-15.83-1.72
			c-29.59-5.12-57.29-18.01-80.26-37.36c-17.46-14.49-31.87-32.29-42.41-52.37c-9.19-17.5-15.22-36.49-17.81-56.09
			c-0.42-3.16-0.06-6.42-0.78-9.56v-3.34c0.37-0.3,0.43-0.84,0.13-1.22C103.57,324.39,103.53,324.35,103.49,324.32z"/>
		<path id="Path_871" class="st1" d="M265.89,485.49c0.95-0.02,1.99-0.42,2.71,0.59h-2.67c-0.21-0.12-0.28-0.24-0.23-0.38
			S265.83,485.49,265.89,485.49z"/>
		<path id="Path_874" class="st2" d="M263.26,486.07c0.16-0.83,0.76-0.63,1.3-0.57c0.24,0.11,0.33,0.23,0.25,0.36
			c-0.07,0.13-0.14,0.2-0.22,0.2L263.26,486.07z"/>
		<path id="Path_875" class="st3" d="M264.6,486.07c0-0.19-0.01-0.38-0.04-0.57l1.34-0.02c0.03,0.2,0.04,0.39,0.04,0.59H264.6z"/>
		<path id="Path_876" class="st4" d="M281.98,486.07c0.28-0.64,0.8-0.66,1.38-0.55c0.19,0.14,0.24,0.26,0.17,0.38
			c-0.07,0.12-0.14,0.17-0.2,0.17L281.98,486.07L281.98,486.07z"/>
		<path id="Path_877" class="st3" d="M283.32,486.07c0-0.18,0.02-0.37,0.04-0.55l1.33-0.01c0.19,0.14,0.25,0.27,0.17,0.39
			s-0.14,0.18-0.21,0.18L283.32,486.07z"/>
		<path id="Path_878" class="st2" d="M284.65,486.07c0-0.19,0.01-0.38,0.03-0.57c0.55-0.08,1.15-0.28,1.3,0.57H284.65z"/>
		<path id="Path_879" class="st5" d="M274.58,465.72c-83.23-0.18-150.63-67.65-150.71-150.88c0.37-83.4,68.37-151.24,150.97-150.64
			c83.26,0.21,150.6,67.87,150.39,151.13C425.02,398.4,357.66,465.65,274.58,465.72L274.58,465.72z"/>
		<path id="Path_880" class="st0" d="M274.59,322.37h87.89c9.07,0,12.93,3.85,12.44,12.86c-2.29,42.16-22.84,72.4-61.04,89.72
			c-41.27,18.71-91.98,4.71-119.1-31.52c-12.94-16.9-20.14-37.51-20.53-58.79c-0.19-8.14,3.65-12.25,11.77-12.25
			c18.18-0.01,36.35-0.02,54.53-0.02C251.91,322.36,263.25,322.37,274.59,322.37z"/>
		<path id="Path_881" class="st0" d="M210.34,257.31c9.88,0.52,19.23,4.63,26.29,11.55c4.44,3.45,5.25,9.85,1.79,14.29
			c-0.14,0.18-0.29,0.36-0.44,0.53c-3.61,4.16-9.9,4.61-14.07,1.01c-0.18-0.15-0.35-0.31-0.52-0.48c-7.31-7.19-18.54-8.59-27.38-3.4
			c-1.76,1.16-3.44,2.43-5.05,3.79c-4.2,3.72-10.62,3.34-14.35-0.86c-3.72-4.2-3.34-10.62,0.86-14.35l0,0
			C185.14,261.76,196.03,257.34,210.34,257.31z"/>
		<path id="Path_882" class="st0" d="M342.13,257.3c10.84-0.03,21.27,4.13,29.1,11.62c4.37,3.53,5.05,9.94,1.52,14.31
			s-9.94,5.05-14.31,1.52c-0.21-0.17-0.42-0.36-0.62-0.54c-9.14-7.46-18.25-8.62-27.34-3.33c-1.76,1.16-3.45,2.43-5.04,3.8
			c-4.2,3.53-10.44,3.12-14.13-0.94c-3.75-4.1-3.47-10.47,0.64-14.22c0.06-0.05,0.11-0.1,0.17-0.15
			C320.11,261.5,330.92,257.16,342.13,257.3z"/>
		<path id="Path_883" class="st5" d="M274.95,342.84c25.28,0,50.56,0.03,75.84-0.04c2.46,0,3.3,0.19,2.84,3.17
			c-7.38,43.62-48.72,72.99-92.33,65.61c-28.95-4.9-52.91-25.25-62.42-53.04c-1.41-4.33-2.52-8.75-3.33-13.23
			c-0.46-2.36,0.31-2.51,2.23-2.51c13.59,0.06,27.17,0.03,40.76,0.03L274.95,342.84z"/>
	</g>
	<g id="Group_1045" transform="translate(143 -800)">
		<g id="Ellipse_228" transform="translate(1253 3212)">
			<circle class="st6" cx="125.01" cy="147.06" r="70.31"/>
			<circle class="st7" cx="125.01" cy="147.06" r="65.73"/>
		</g>
		<g class="st8">
			<path class="st5" d="M1397.73,3371.78c0,8.34-6.12,15.6-19.57,15.6c-6.52,0-13.39-1.82-17.96-5.04l4.3-8.34
				c3.56,2.69,8.47,4.24,13.38,4.24c5.45,0,8.81-2.29,8.81-6.12c0-3.7-2.42-6.12-10.96-6.12h-12.04l2.42-26.5h28.72v8.74h-19.64
				l-0.74,8.95h3.83C1392.22,3357.18,1397.73,3363.43,1397.73,3371.78z"/>
		</g>
	</g>
</g>
</svg>
